<svg width="110" height="19" viewBox="0 0 110 19" fill="none" xmlns="http://www.w3.org/2000/svg">
<path d="M9.08 18.264C7.208 18.264 5.6 17.904 4.256 17.184C2.912 16.464 1.88 15.448 1.16 14.136C0.456 12.824 0.104 11.288 0.104 9.528C0.104 7.768 0.456 6.24 1.16 4.944C1.88 3.632 2.912 2.616 4.256 1.896C5.6 1.176 7.208 0.816 9.08 0.816C9.816 0.816 10.576 0.903999 11.36 1.08C12.16 1.24 12.864 1.488 13.472 1.824C13.92 2.064 14.232 2.368 14.408 2.736C14.584 3.104 14.648 3.48 14.6 3.864C14.552 4.248 14.408 4.592 14.168 4.896C13.944 5.2 13.656 5.408 13.304 5.52C12.952 5.616 12.568 5.56 12.152 5.352C11.208 4.888 10.24 4.656 9.248 4.656C7.76 4.656 6.64 5.08 5.888 5.928C5.136 6.76 4.76 7.96 4.76 9.528C4.76 11.112 5.136 12.328 5.888 13.176C6.64 14.008 7.76 14.424 9.248 14.424C9.664 14.424 10.112 14.376 10.592 14.28C11.072 14.168 11.544 14 12.008 13.776C12.488 13.568 12.912 13.512 13.28 13.608C13.664 13.704 13.976 13.896 14.216 14.184C14.456 14.472 14.6 14.808 14.648 15.192C14.712 15.56 14.664 15.928 14.504 16.296C14.344 16.664 14.048 16.96 13.616 17.184C13.056 17.52 12.36 17.784 11.528 17.976C10.712 18.168 9.896 18.264 9.08 18.264ZM39.6335 18.264C37.9215 18.264 36.4175 17.904 35.1215 17.184C33.8415 16.448 32.8415 15.424 32.1215 14.112C31.4015 12.8 31.0415 11.272 31.0415 9.528C31.0415 7.768 31.3935 6.24 32.0975 4.944C32.8175 3.632 33.8255 2.616 35.1215 1.896C36.4175 1.176 37.9215 0.816 39.6335 0.816C41.3455 0.816 42.8415 1.176 44.1215 1.896C45.4175 2.616 46.4255 3.632 47.1455 4.944C47.8655 6.24 48.2255 7.768 48.2255 9.528C48.2255 11.272 47.8655 12.8 47.1455 14.112C46.4255 15.424 45.4175 16.448 44.1215 17.184C42.8415 17.904 41.3455 18.264 39.6335 18.264ZM39.6335 14.568C40.8815 14.568 41.8575 14.128 42.5615 13.248C43.2815 12.352 43.6415 11.112 43.6415 9.528C43.6415 7.944 43.2895 6.712 42.5855 5.832C41.8815 4.952 40.8975 4.512 39.6335 4.512C38.3695 4.512 37.3855 4.952 36.6815 5.832C35.9775 6.712 35.6255 7.944 35.6255 9.528C35.6255 11.112 35.9775 12.352 36.6815 13.248C37.3855 14.128 38.3695 14.568 39.6335 14.568ZM72.1209 18.264C71.1449 18.264 70.1369 18.168 69.0969 17.976C68.0729 17.768 67.1929 17.48 66.4569 17.112C66.0249 16.904 65.7209 16.624 65.5449 16.272C65.3689 15.92 65.3049 15.56 65.3529 15.192C65.4009 14.808 65.5369 14.472 65.7609 14.184C65.9849 13.88 66.2809 13.68 66.6489 13.584C67.0169 13.472 67.4329 13.52 67.8969 13.728C68.5049 14.032 69.1929 14.264 69.9609 14.424C70.7289 14.568 71.4489 14.64 72.1209 14.64C73.1769 14.64 73.9129 14.504 74.3289 14.232C74.7609 13.944 74.9769 13.592 74.9769 13.176C74.9769 12.808 74.8249 12.512 74.5209 12.288C74.2329 12.064 73.7129 11.872 72.9609 11.712L70.1529 11.112C67.1129 10.456 65.5929 8.864 65.5929 6.336C65.5929 5.232 65.8889 4.264 66.4809 3.432C67.0889 2.6 67.9289 1.96 69.0009 1.512C70.0729 1.048 71.3209 0.816 72.7449 0.816C73.5769 0.816 74.4169 0.911999 75.2649 1.104C76.1289 1.28 76.8729 1.552 77.4969 1.92C77.9769 2.176 78.2809 2.528 78.4089 2.976C78.5369 3.408 78.5209 3.832 78.3609 4.248C78.2009 4.664 77.9129 4.968 77.4969 5.16C77.0969 5.352 76.5849 5.32 75.9609 5.064C75.4809 4.856 74.9529 4.704 74.3769 4.608C73.8009 4.496 73.2409 4.44 72.6969 4.44C71.8009 4.44 71.1129 4.6 70.6329 4.92C70.1529 5.224 69.9129 5.624 69.9129 6.12C69.9129 6.472 70.0569 6.76 70.3449 6.984C70.6329 7.208 71.1449 7.4 71.8809 7.56L74.6649 8.16C77.7529 8.816 79.2969 10.368 79.2969 12.816C79.2969 13.92 79.0009 14.88 78.4089 15.696C77.8169 16.512 76.9849 17.144 75.9129 17.592C74.8409 18.04 73.5769 18.264 72.1209 18.264ZM102.212 18.216C101.508 18.216 100.964 18.024 100.58 17.64C100.196 17.24 100.004 16.672 100.004 15.936V10.512L95.3964 3.84C95.1244 3.456 95.0044 3.032 95.0364 2.568C95.0844 2.104 95.2764 1.704 95.6124 1.368C95.9644 1.032 96.4604 0.863999 97.1004 0.863999C97.5484 0.863999 97.9564 0.975999 98.3244 1.2C98.6924 1.424 99.0364 1.784 99.3564 2.28L102.284 6.576L105.212 2.256C105.548 1.76 105.892 1.408 106.244 1.2C106.596 0.975999 107.012 0.863999 107.492 0.863999C108.1 0.863999 108.572 1.016 108.908 1.32C109.244 1.624 109.42 2.008 109.436 2.472C109.468 2.936 109.324 3.408 109.004 3.888L104.42 10.512V15.936C104.42 17.456 103.684 18.216 102.212 18.216Z" fill="#00FFFF"/>
</svg>
