<svg width="93" height="71" viewBox="0 0 93 71" fill="none" xmlns="http://www.w3.org/2000/svg">
<path d="M35.0508 59.9977C41.662 59.985 47.9977 57.3486 52.666 52.6674C52.951 52.3754 53.1096 51.9828 53.107 51.5748C53.1046 51.1665 52.9414 50.7761 52.6529 50.4876C52.3642 50.1989 51.9737 50.0356 51.5655 50.0332C51.1574 50.0307 50.7649 50.1893 50.4728 50.4743C46.3808 54.5756 40.8278 56.8851 35.0342 56.8954C32.1892 56.9328 29.3655 56.4001 26.7296 55.3285C24.0939 54.257 21.6994 52.6684 19.6876 50.6565C17.6757 48.6446 16.0871 46.2502 15.0155 43.6145C13.9441 40.9786 13.4113 38.1549 13.4487 35.3099C13.4657 29.5173 15.7744 23.9667 19.8705 19.8707C23.9667 15.7745 29.5172 13.4658 35.3099 13.4487C38.1356 13.4142 40.9401 13.941 43.5607 14.9985C46.1814 16.056 48.566 17.6232 50.5764 19.6093C50.9896 20.0493 51.2147 20.6334 51.2035 21.237C51.1923 21.8406 50.9457 22.4159 50.5163 22.8402C50.087 23.2646 49.5089 23.5045 48.9052 23.5087C48.3015 23.5129 47.7201 23.281 47.2849 22.8627C47.2453 22.8232 47.2036 22.7859 47.1601 22.751C44.0221 19.8088 39.8682 18.1936 35.5669 18.2431C31.0618 18.2581 26.7455 20.0544 23.5599 23.24C20.3742 26.4256 18.578 30.7419 18.563 35.247C18.5363 37.4674 18.9539 39.6706 19.7913 41.7271C20.6287 43.7836 21.869 45.6518 23.4391 47.2219C25.0091 48.7919 26.8774 50.0323 28.9339 50.8697C30.9903 51.707 33.1936 52.1246 35.4139 52.0979C39.9201 52.0888 44.2385 50.2915 47.4205 47.1006C47.927 46.6034 48.3301 46.0105 48.6063 45.3566C48.8822 44.7026 49.0262 44.0005 49.0294 43.2907C49.0326 42.5808 48.8952 41.8773 48.6251 41.2209C48.3549 40.5645 47.9575 39.9682 47.4555 39.4662C46.9535 38.9642 46.3572 38.5667 45.7007 38.2966C45.0443 38.0264 44.3409 37.8891 43.631 37.8923C42.9211 37.8955 42.219 38.0394 41.5651 38.3154C40.9112 38.5916 40.3183 38.9947 39.8211 39.5012C39.7891 39.5332 39.7611 39.5654 39.7329 39.5986C39.6996 39.6268 39.6668 39.6555 39.6355 39.6868C38.7676 40.5691 37.6572 41.1735 36.445 41.4236C35.2331 41.6737 33.9742 41.558 32.8279 41.0915C31.6818 40.6249 30.6998 39.8283 30.0071 38.803C29.3143 37.7774 28.9417 36.5694 28.9366 35.3318C28.9316 34.0942 29.2942 32.8831 29.9786 31.852C30.663 30.8209 31.6382 30.0163 32.7805 29.5405C33.923 29.0644 35.181 28.9386 36.395 29.1787C37.609 29.4189 38.7244 30.0143 39.5994 30.8893C39.7428 31.0362 39.9139 31.1532 40.1028 31.2334C40.2917 31.3137 40.4947 31.3556 40.6999 31.3568C40.9051 31.3581 41.1087 31.3187 41.2984 31.2406C41.4884 31.1627 41.6609 31.0478 41.806 30.9027C41.9511 30.7575 42.066 30.5851 42.1439 30.3951C42.222 30.2054 42.2614 30.0018 42.2601 29.7966C42.2589 29.5913 42.217 29.3884 42.1367 29.1995C42.0565 29.0106 41.9395 28.8395 41.7926 28.6961C40.4868 27.4047 38.8276 26.5289 37.0246 26.1794C35.2216 25.8298 33.3554 26.0221 31.6615 26.732C29.9676 27.4419 28.522 28.6377 27.5069 30.1683C26.4918 31.6989 25.9529 33.4958 25.9579 35.3325C25.9631 37.169 26.5121 38.963 27.5356 40.4881C28.5592 42.0128 30.0116 43.2005 31.7093 43.901C33.407 44.6014 35.2742 44.7835 37.0753 44.424C38.8764 44.0644 40.5306 43.1793 41.8293 41.8806C41.8613 41.8486 41.8893 41.8165 41.9174 41.7832C41.9507 41.755 41.9835 41.7264 42.0149 41.695C42.2242 41.477 42.475 41.3031 42.7526 41.1832C43.03 41.0634 43.3287 41.0002 43.6307 40.9971C43.933 40.9941 44.2329 41.0514 44.5126 41.1656C44.7923 41.2799 45.0467 41.449 45.2603 41.6626C45.474 41.8763 45.643 42.1306 45.7573 42.4103C45.8716 42.6901 45.9289 42.9899 45.9258 43.2922C45.9228 43.5942 45.8596 43.893 45.7397 44.1703C45.6198 44.448 45.4459 44.6987 45.2279 44.908C42.622 47.5197 39.0862 48.9902 35.397 48.9966C33.5869 49.0211 31.7904 48.6824 30.1133 48.001C28.4363 47.3196 26.9128 46.3089 25.6327 45.0289C24.3528 43.749 23.3421 42.2255 22.6607 40.5484C21.9793 38.8714 21.6407 37.0749 21.6652 35.2648C21.6757 31.5764 23.1456 28.042 25.7537 25.4338C28.3619 22.8257 31.8962 21.3558 35.5847 21.3453C37.3943 21.3227 39.1902 21.662 40.8668 22.3432C42.5435 23.0245 44.067 24.0338 45.3481 25.3122C45.4468 25.4103 45.5583 25.4947 45.6797 25.5631C46.7565 26.3535 48.0869 26.7184 49.4162 26.588C50.7455 26.4577 51.9798 25.8411 52.8824 24.8565C53.785 23.872 54.2921 22.5888 54.3068 21.2532C54.3215 19.9177 53.8426 18.6238 52.9619 17.6197C52.9268 17.576 52.8893 17.5341 52.8497 17.4944C52.8276 17.4723 52.8057 17.4504 52.7836 17.4283C52.7727 17.4174 52.7622 17.4068 52.7516 17.3963C52.7411 17.3857 52.7289 17.3761 52.718 17.3659C50.4203 15.1041 47.6977 13.3194 44.707 12.1149C41.7163 10.9103 38.5167 10.3097 35.2928 10.3476C28.6835 10.3691 22.3511 13.0042 17.6776 17.6777C13.0041 22.3512 10.3692 28.6835 10.3476 35.2928C10.3078 38.548 10.9196 41.7784 12.1471 44.7935C13.3745 47.8088 15.1927 50.5481 17.4947 52.85C19.7967 55.152 22.5359 56.9701 25.5513 58.1977C28.5664 59.4252 31.7967 60.0369 35.0519 59.9972L35.0508 59.9977Z" fill="white"/>
<path d="M56.095 43.207C55.0063 43.207 54.0403 42.9847 53.197 42.54C52.369 42.0953 51.725 41.4667 51.265 40.654C50.805 39.8413 50.575 38.906 50.575 37.848C50.575 36.4067 50.9123 35.0957 51.587 33.915C52.277 32.719 53.2123 31.776 54.393 31.086C55.589 30.396 56.9153 30.051 58.372 30.051C59.4607 30.051 60.4267 30.281 61.27 30.741C62.1287 31.1857 62.788 31.8143 63.248 32.627C63.7233 33.4397 63.961 34.375 63.961 35.433C63.961 36.8897 63.616 38.2083 62.926 39.389C62.236 40.5697 61.2853 41.505 60.074 42.195C58.878 42.8697 57.5517 43.207 56.095 43.207ZM56.532 40.447C57.2987 40.447 57.9963 40.2247 58.625 39.78C59.2537 39.3353 59.7443 38.745 60.097 38.009C60.4497 37.273 60.626 36.4987 60.626 35.686C60.626 34.766 60.3653 34.0607 59.844 33.57C59.338 33.064 58.694 32.811 57.912 32.811C57.13 32.811 56.4323 33.0333 55.819 33.478C55.221 33.9227 54.7533 34.5207 54.416 35.272C54.0787 36.008 53.91 36.79 53.91 37.618C53.91 38.5227 54.1477 39.2203 54.623 39.711C55.1137 40.2017 55.75 40.447 56.532 40.447ZM70.049 43.207C69.1137 43.207 68.2627 43.0537 67.496 42.747C66.7447 42.425 66.1467 41.988 65.702 41.436C65.2727 40.8687 65.058 40.2247 65.058 39.504C65.058 39.3967 65.0733 39.2203 65.104 38.975H68.232C68.186 39.5117 68.347 39.9487 68.715 40.286C69.083 40.608 69.6043 40.769 70.279 40.769C70.8923 40.769 71.3983 40.6617 71.797 40.447C72.211 40.217 72.418 39.8873 72.418 39.458C72.418 39.0747 72.2263 38.768 71.843 38.538C71.475 38.308 70.8847 38.0473 70.072 37.756C69.2593 37.4647 68.5847 37.181 68.048 36.905C67.5113 36.629 67.0513 36.2457 66.668 35.755C66.2847 35.2643 66.093 34.6433 66.093 33.892C66.093 33.1407 66.3077 32.4737 66.737 31.891C67.1817 31.3083 67.795 30.856 68.577 30.534C69.359 30.212 70.256 30.051 71.268 30.051C72.234 30.051 73.085 30.212 73.821 30.534C74.557 30.856 75.1243 31.3083 75.523 31.891C75.937 32.4583 76.144 33.11 76.144 33.846C76.144 34.03 76.1363 34.168 76.121 34.26H73.131C73.177 33.7233 73.0237 33.294 72.671 32.972C72.3183 32.65 71.8047 32.489 71.13 32.489C70.578 32.489 70.1257 32.6117 69.773 32.857C69.4203 33.087 69.244 33.4013 69.244 33.8C69.244 34.1987 69.4433 34.5283 69.842 34.789C70.2407 35.0343 70.854 35.3103 71.682 35.617C72.51 35.939 73.1693 36.238 73.66 36.514C74.166 36.7747 74.603 37.1427 74.971 37.618C75.339 38.078 75.523 38.6607 75.523 39.366C75.523 40.148 75.2853 40.8303 74.81 41.413C74.3347 41.9957 73.683 42.4403 72.855 42.747C72.027 43.0537 71.0917 43.207 70.049 43.207ZM81.9842 30.258L83.6862 39.159L88.6312 30.258H92.0582L80.8572 49.026H77.4302L81.2942 42.678L78.3732 30.258H81.9842Z" fill="white"/>
</svg>
